<svg width="1090" height="923" viewBox="0 0 1090 923" fill="none" xmlns="http://www.w3.org/2000/svg">
<path d="M919.467 1.2666C914 1.93323 907.867 3.3999 905.867 4.46655C903.867 5.53326 901.467 6.33325 900.667 6.33325C896.267 6.33325 881.467 18.8666 859.733 40.9999C846.267 54.5999 805.867 95.3999 769.733 131.667C733.6 168.067 698.533 203.4 692 210.333C654.933 249.133 635.2 270.733 629.2 279C614.133 300.067 609.2 307.133 608.267 309C607.733 310.067 606.133 312.733 604.8 315C603.333 317.133 599.067 325.267 595.333 333C591.6 340.733 587.867 348.2 587.067 349.533C586.267 351 585.2 353.667 584.667 355.533C584 357.4 582.267 362.333 580.667 366.333C576.933 376.2 573.6 386.6 570.8 397C569.467 401.8 567.6 408.6 566.533 412.2C565.467 415.667 564.667 420.333 564.667 422.333C564.667 424.467 564.133 427.667 563.333 429.533C562.667 431.533 561.467 439.933 560.8 448.467C560.133 457 559.067 464.467 558.4 465C557.867 465.667 548.933 466.867 538.667 467.667C480.133 472.333 454 478.6 416 497.267C408.667 500.867 400.933 505 398.667 506.333C396.533 507.8 393.733 509.4 392.667 509.933C388.667 511.8 369.2 527.133 363.6 532.867C356.533 540.2 353.6 545.533 354.8 549.4C355.733 552.333 364 560.733 403.6 598.2C417.067 611 447.067 640.467 470.4 663.8C515.867 709.4 515.6 709.267 523.467 703.933C531.867 698.467 556.133 669 561.067 658.333C561.6 657.267 563.333 654.2 564.8 651.667C571.067 641.267 580.667 621 580.667 618.2C580.667 617.133 581.2 615.667 581.733 615C582.933 613.667 587.067 600.733 590 589C593.2 576.2 595.6 556.867 596.267 537.933L596.933 518.333H603.733C636.4 518.2 697.6 512.333 711.333 507.933C713.867 507.133 719.867 505.267 724.667 503.8C748.933 496.2 770.8 485.933 788.667 473.933C804.133 463.4 808 460.733 808.667 459.8C809.067 459.4 815.333 454.2 822.667 448.333C830 442.467 836.267 437.4 836.667 437C837.067 436.6 863.467 410.467 895.333 379C1007.33 268.333 1050.8 225.533 1059.47 217.533C1082.4 196.2 1091.47 175.267 1089.33 147.8C1088.93 141.533 1087.6 134.867 1086.53 132.867C1085.47 130.733 1084.67 128.2 1084.67 127C1084.67 121.267 1071.47 106.2 1027.6 62.0666C992.8 27.1332 978.4 13.5333 973.467 10.9999C961.333 4.73328 952.4 2.33325 934 0.466553C931.467 0.19989 924.933 0.466553 919.467 1.2666ZM923.733 224.2C943.333 244.067 959.333 260.867 959.333 261.533C959.333 263.667 802.667 418.6 792.667 426.2C783.733 433.133 776 438.333 768 443.267C762 446.867 732.933 461 727.333 463C724 464.2 719.2 465.667 716.667 466.2C714.133 466.733 709.867 467.933 707.333 468.733C694.8 472.6 687.333 474.333 683.467 474.333C681.067 474.333 678 475 676.533 475.667C674 477.133 642.267 480.2 616.267 481.533L601.867 482.333L600.533 478.6C597.733 471.533 603.2 414.2 607.333 406.2C608.133 404.867 608.667 402.6 608.667 401.133C608.667 394.467 617.733 371.133 626.533 355C646.8 317.667 648.667 314.867 666.133 293C692.133 260.333 698.4 253.8 788.667 164.467L826.267 127.267L857.067 157.8C874.133 174.467 904 204.467 923.733 224.2Z" fill="#141414"/>
<path d="M324.667 573.4C322.8 574.2 317.467 576.6 312.667 578.733C303.867 582.6 296.267 586.2 278 594.733C272.533 597.267 264.4 601 260 603C246.8 609 220.933 621 209.067 626.6C200.533 630.733 196.667 635.667 196.667 642.467C196.667 644.067 195.867 649.133 194.8 653.533C193.2 660.6 190.267 676.467 188.133 689.667C187.333 693.933 185.467 704.2 182.667 719C181.733 724.067 179.867 734.333 178.667 741.667C177.467 749 175.6 759 174.533 763.8C173.467 768.733 172.667 774.333 172.667 776.333C172.667 778.333 171.867 783.533 170.8 788.067C169.733 792.6 167.867 800.867 166.8 806.333C159.467 842.733 155.6 853.267 143.6 868.6C141.2 871.8 138 874.333 136.667 874.333C135.067 874.333 130.133 869.667 124.133 862.867C118.667 856.6 112.8 850.467 111.067 849.133C107.333 846.333 98.5332 843.667 93.1998 843.667C83.0665 843.8 70.5332 851.933 60.6665 864.867C47.5998 882.067 47.4665 882.333 42.6665 882.333C39.1998 882.333 36.5332 881 31.4665 876.467C21.5998 867.667 12.9332 866.867 4.6665 873.933C1.0665 876.867 0.666504 878.067 0.666504 884.733C0.799837 893.8 3.8665 899.533 13.9998 909.8C25.1998 921.133 41.8665 925.133 55.5998 919.933C63.7332 916.867 70.3998 911.267 75.7332 903C81.0665 894.733 88.5332 886.333 90.5332 886.333C91.3332 886.333 97.7332 892.333 104.667 899.533C111.733 906.867 118.933 913.533 120.667 914.2C122.533 915 124.933 916.2 126 916.867C131.467 920.067 142.4 922.6 148.933 922.067C157.2 921.4 167.867 918.867 173.067 916.2C175.2 915.133 177.467 914.333 178.133 914.333C178.8 914.333 183.333 912.467 188.267 910.2C202 903.933 204.933 902.733 210.533 901C218.933 898.333 232.667 895.533 242.667 894.333C255.067 892.867 268.933 890.467 278.133 888.2C282.133 887.133 287.2 886.333 289.2 886.333C291.333 886.333 296.933 885.533 301.867 884.467C320 880.467 335.467 878.2 364.933 875.133C375.067 874.067 384.4 872.867 385.6 872.467C386.933 872.067 393.067 871.133 399.333 870.467C414.8 868.6 423.467 866.333 426.8 863.4C428.4 862.067 431.067 857.8 432.933 853.933C437.733 844.067 448.4 821.667 452.667 812.333C454.667 807.933 458.8 799.267 461.733 793C464.667 786.733 468.933 777.4 471.333 772.333C473.6 767.133 477.067 759.667 478.933 755.667C492.533 726.067 492.533 726.333 489.2 720.333C487.867 717.8 482.8 712.333 478 708.2C473.2 704.067 441.067 672.6 406.533 638.333C372 604.067 341.733 575 339.333 573.8C334.267 571.4 329.467 571.133 324.667 573.4ZM337.467 688.333C354.267 695 361.6 702.867 366.533 719.8C369.333 729.133 369.2 736.867 366.133 745.667C362.8 755 356.533 763.667 349.333 768.867C343.333 773.133 329.067 778.333 323.333 778.333C318.4 778.2 302.267 773.8 300.4 771.933C299.467 771 298.133 770.333 297.333 770.333C295.467 770.333 287.333 762.6 283.867 757.667C278.533 749.933 276.667 742.733 276.667 730.733C276.667 720.333 277.067 718.333 281.067 710.6C285.6 701.267 293.867 693.133 302.8 689C309.6 685.8 330 685.4 337.467 688.333Z" fill="#141414"/>
</svg>
